<svg width="322" height="72" viewBox="0 0 322 72" fill="none" xmlns="http://www.w3.org/2000/svg">
<path d="M182.068 41.2645H178.995V71.4871H182.068V41.2645Z" fill="#1E3783"/>
<path d="M172.744 41.2645H169.671V71.4871H172.744V41.2645Z" fill="#1E3783"/>
<path d="M161.803 68.6004C160.032 70.3931 157.686 71.5197 155.169 71.7876C152.652 72.0555 150.119 71.448 148.003 70.069C145.888 68.6899 144.322 66.6251 143.572 64.2278C142.823 61.8304 142.938 59.2495 143.896 56.9265C144.854 54.6035 146.597 52.6828 148.827 51.493C151.056 50.3032 153.633 49.9183 156.117 50.404C158.601 50.8897 160.837 52.2159 162.444 54.1558C164.05 56.0956 164.927 58.5285 164.923 61.0383C164.922 61.4395 164.899 61.8404 164.856 62.2394H161.736C161.798 61.842 161.83 61.4404 161.829 61.0383C161.833 59.2498 161.216 57.5144 160.082 56.1234C158.948 54.7324 157.366 53.7703 155.601 53.3987C153.836 53.027 151.996 53.2684 150.389 54.0822C148.783 54.8961 147.507 56.2329 146.777 57.8684C146.047 59.5039 145.907 61.3386 146.379 63.0647C146.852 64.7907 147.909 66.3031 149.373 67.348C150.838 68.393 152.62 68.9069 154.421 68.8036C156.222 68.7003 157.933 67.9861 159.266 66.7807L161.803 68.6004Z" fill="#1E3783"/>
<path d="M164.663 59.8321H143.692V62.2342H164.663V59.8321Z" fill="#1E3783"/>
<path d="M107.853 50.2442C104.629 50.2132 101.785 51.1617 100.688 53.1876V50.7133H97.5989V71.4871H100.688V59.2599C100.688 55.3474 103.397 53.0742 106.6 53.0742C109.803 53.0742 112.544 55.1 112.544 58.497V71.4871H115.617V57.3475C115.622 52.9401 111.077 50.2803 107.853 50.2442Z" fill="#1E3783"/>
<path d="M131.773 50.2442C128.549 50.2132 125.705 51.1617 124.608 53.1876V50.7133H121.519V71.4871H124.608V59.2599C124.608 55.3474 127.317 53.0742 130.52 53.0742C133.723 53.0742 136.464 55.1 136.464 58.497V71.4871H139.537V57.3475C139.542 52.9401 134.997 50.2803 131.773 50.2442Z" fill="#1E3783"/>
<path d="M82.2953 71.8634C80.1355 71.8634 78.0243 71.2285 76.2285 70.039C74.4327 68.8496 73.0331 67.1589 72.2066 65.1809C71.38 63.2029 71.1638 61.0263 71.5851 58.9265C72.0065 56.8266 73.0465 54.8978 74.5737 53.3838C76.1009 51.8699 78.0467 50.8389 80.1649 50.4213C82.2832 50.0036 84.4788 50.2179 86.4742 51.0373C88.4696 51.8566 90.1751 53.2441 91.375 55.0242C92.5749 56.8044 93.2153 58.8973 93.2153 61.0383C93.2153 62.4599 92.9329 63.8675 92.3841 65.1809C91.8353 66.4943 91.0309 67.6876 90.0169 68.6928C89.0029 69.698 87.7991 70.4954 86.4742 71.0394C85.1493 71.5834 83.7294 71.8634 82.2953 71.8634ZM82.2953 53.2546C80.7421 53.2536 79.2235 53.7092 77.9316 54.5639C76.6396 55.4185 75.6324 56.6338 75.0373 58.056C74.4422 59.4782 74.286 61.0435 74.5884 62.5537C74.8907 64.0639 75.6382 65.4513 76.7361 66.5404C77.834 67.6295 79.2331 68.3714 80.7564 68.6721C82.2796 68.9729 83.8587 68.819 85.2937 68.2301C86.7288 67.6411 87.9554 66.6434 88.8185 65.3633C89.6815 64.0831 90.1421 62.578 90.1421 61.0383C90.1407 58.9753 89.3138 56.997 87.8426 55.5377C86.3715 54.0784 84.3765 53.2573 82.2953 53.2546Z" fill="#1E3783"/>
<path d="M55.7493 71.8634C53.1184 71.8637 50.53 71.2062 48.2235 69.9517C45.917 68.6973 43.967 66.8863 42.5539 64.6866C41.1407 62.4868 40.3101 59.9692 40.1389 57.3667C39.9677 54.7643 40.4615 52.1611 41.5745 49.798C42.6875 47.4349 44.3837 45.3883 46.5063 43.8475C48.629 42.3068 51.1093 41.3216 53.7179 40.9832C56.3265 40.6448 58.9791 40.9642 61.4301 41.9117C63.8812 42.8592 66.0516 44.4042 67.7405 46.4039L65.3849 48.3575C63.7295 46.3941 61.5043 44.9835 59.0119 44.3176C56.5194 43.6517 53.8806 43.7627 51.4541 44.6355C49.0275 45.5084 46.9309 47.1008 45.4492 49.1962C43.9676 51.2916 43.1727 53.7885 43.1727 56.3475C43.1727 58.9064 43.9676 61.4033 45.4492 63.4987C46.9309 65.5941 49.0275 67.1865 51.4541 68.0594C53.8806 68.9322 56.5194 69.0432 59.0119 68.3773C61.5043 67.7114 63.7295 66.3008 65.3849 64.3374L67.7405 66.291C66.2765 68.035 64.4433 69.4382 62.371 70.4012C60.2987 71.3642 58.038 71.8634 55.7493 71.8634Z" fill="#1E3783"/>
<path d="M15.6416 71.8634C12.548 71.8634 9.52386 70.954 6.95161 69.2502C4.37936 67.5464 2.37452 65.1248 1.19064 62.2915C0.00676782 59.4582 -0.302976 56.3406 0.30056 53.3328C0.904095 50.325 2.39381 47.5621 4.58133 45.3936C6.76885 43.2251 9.55592 41.7484 12.5901 41.1501C15.6243 40.5518 18.7693 40.8589 21.6274 42.0324C24.4855 43.206 26.9284 45.1934 28.6471 47.7433C30.3659 50.2932 31.2832 53.291 31.2832 56.3578C31.2791 60.4689 29.6298 64.4104 26.6973 67.3174C23.7649 70.2244 19.7888 71.8593 15.6416 71.8634ZM15.6416 43.8986C13.1558 43.8986 10.7259 44.6293 8.65899 45.9984C6.59212 47.3674 4.9812 49.3133 4.02992 51.5899C3.07865 53.8665 2.82974 56.3716 3.3147 58.7884C3.79965 61.2053 4.99669 63.4253 6.75442 65.1677C8.51214 66.9101 10.7516 68.0968 13.1896 68.5775C15.6277 69.0582 18.1548 68.8115 20.4513 67.8685C22.7479 66.9255 24.7108 65.3286 26.0919 63.2797C27.4729 61.2308 28.21 58.8219 28.21 56.3578C28.2059 53.0547 26.8804 49.888 24.5243 47.5523C22.1681 45.2167 18.9737 43.9027 15.6416 43.8986Z" fill="#1E3783"/>
<path d="M36.3309 40.8521H33.2109V49.806H36.3309V40.8521Z" fill="#1E3783"/>
<g clip-path="url(#clip0)">
<path d="M123.474 9.77864H118.903L109.887 17.8768V0.412384H106.813V30.6349H109.887V20.6604L118.638 30.6349H123.032L112.523 19.4181L123.474 9.77864Z" fill="#1E3783"/>
<path d="M93.4129 31.0112C91.542 31.0144 89.7017 30.5409 88.0684 29.6363C86.4351 28.7317 85.0637 27.4263 84.0856 25.8453C83.1075 24.2643 82.5556 22.4606 82.4828 20.6074C82.41 18.7542 82.8188 16.9135 83.6698 15.2618C84.5209 13.6102 85.7858 12.203 87.3432 11.1753C88.9006 10.1475 90.6982 9.53362 92.5637 9.3925C94.4292 9.25138 96.2999 9.58775 97.9966 10.3694C99.6933 11.151 101.159 12.3516 102.253 13.8561L99.7621 15.6345C98.7914 14.2984 97.4183 13.302 95.8402 12.7883C94.2622 12.2747 92.5604 12.2703 90.9797 12.7759C89.399 13.2814 88.0207 14.2709 87.0431 15.6019C86.0654 16.933 85.5387 18.5371 85.5387 20.1836C85.5387 21.8301 86.0654 23.4342 87.0431 24.7653C88.0207 26.0963 89.399 27.0858 90.9797 27.5913C92.5604 28.0969 94.2622 28.0925 95.8402 27.5789C97.4183 27.0652 98.7914 26.0687 99.7621 24.7327L102.253 26.5111C101.241 27.8985 99.9131 29.0292 98.3769 29.8113C96.8407 30.5933 95.1398 31.0044 93.4129 31.0112Z" fill="#1E3783"/>
<path d="M77.4229 9.77866H74.3497V30.6349H77.4229V9.77866Z" fill="#1E3783"/>
<path d="M73.4189 2.5207C73.4189 3.00497 73.5637 3.47837 73.8352 3.88103C74.1066 4.28369 74.4923 4.59752 74.9437 4.78284C75.395 4.96817 75.8916 5.01666 76.3708 4.92218C76.8499 4.8277 77.29 4.5945 77.6354 4.25207C77.9809 3.90964 78.2161 3.47335 78.3114 2.99838C78.4067 2.52342 78.3578 2.0311 78.1709 1.58369C77.9839 1.13628 77.6673 0.753873 77.2611 0.484825C76.855 0.215778 76.3774 0.0721741 75.8889 0.0721741C75.2338 0.0721741 74.6055 0.330143 74.1423 0.789331C73.6791 1.24852 73.4189 1.87131 73.4189 2.5207Z" fill="#1E3783"/>
<path d="M63.2633 12.3148V9.86113H60.1433V30.6349H63.2633C63.2633 30.6349 63.2633 26.6606 63.2633 18.3923C63.2633 14.3561 66.3833 11.4694 69.8725 12.8715V9.97454C67.1945 8.66522 65.3121 9.86113 63.2633 12.3148Z" fill="#1E3783"/>
<path d="M51.896 3.1702H48.8228V30.6349H51.896V3.1702Z" fill="#1E3783"/>
<path d="M55.5984 9.86111H45.2192V12.8767H55.5984V9.86111Z" fill="#1E3783"/>
<path d="M40.2636 9.85081H37.1904V12.3303C36.3507 11.418 35.3306 10.6869 34.1936 10.1823C33.0565 9.67768 31.8269 9.41044 30.5812 9.39719C25.2304 9.39719 20.8936 14.253 20.8936 20.2223C20.8936 26.1915 25.22 30.8824 30.5708 30.8824C31.8058 30.8756 33.0268 30.6219 34.1606 30.1365C35.2944 29.6512 36.3179 28.9441 37.1696 28.0575V30.6349H40.2376V20.3872C40.2376 20.3357 40.2376 20.2893 40.2376 20.2429C40.2376 20.1965 40.2376 20.1501 40.2376 20.1037L40.2636 9.85081ZM31.3196 28.14C27.2428 28.14 23.8836 24.908 23.8836 20.346C23.8836 15.784 27.1388 12.4488 31.2 12.4488C35.2612 12.4488 37.8612 15.784 37.8612 20.346C37.8612 24.908 35.4016 28.14 31.3196 28.14Z" fill="#1E3783"/>
<path d="M3.0732 0.412689H0V30.6352H3.0732V0.412689Z" fill="#1E3783"/>
<path d="M9.92161 20.2841H1.56V17.2376H9.92161C12.6464 17.2376 15.8652 15.0572 15.8652 10.2168C15.8652 5.20119 12.948 3.41763 9.92161 3.41763C7.19681 3.41247 1.56 3.45371 1.56 3.45371V0.412384C1.56 0.412384 7.20201 0.371146 9.92681 0.3763C14.56 0.3763 19.552 3.45371 19.552 10.2168C19.552 17.1603 13.9204 20.2841 9.92161 20.2841Z" fill="#1E3783"/>
</g>
<defs>
<clipPath id="clip0">
<rect width="322" height="31.0112" fill="white"/>
</clipPath>
</defs>
</svg>
