<svg width="334" height="32" viewBox="0 0 334 32" fill="none" xmlns="http://www.w3.org/2000/svg">
<path d="M330.861 0.437012H334.001V31.5991H330.861V0.437012Z" fill="#98CC84"/>
<path d="M321.139 0.437012H324.278V31.5991H321.139V0.437012Z" fill="#98CC84"/>
<path d="M293.777 19.1171H315.211V22.0401H293.777V19.1171Z" fill="#98CC84"/>
<path d="M314.724 26.5445C312.232 30.2424 307.863 31.9611 304.306 31.9611C298.152 31.9611 293.146 26.9548 293.146 20.801C293.146 14.6473 298.152 9.64038 304.306 9.64038C310.46 9.64038 315.467 14.6473 315.467 20.801C315.467 21.2193 315.443 21.6322 315.399 22.0382H312.232C312.295 21.6343 312.327 21.2214 312.327 20.801C312.327 16.3782 308.729 12.7797 304.306 12.7797C299.884 12.7797 296.286 16.3782 296.286 20.801C296.286 25.2233 299.884 28.8213 304.306 28.8213C307.102 28.8213 310.295 27.4671 312.131 24.7758L314.724 26.5445Z" fill="#98CC84"/>
<path d="M255.472 9.69588C252.178 9.65974 249.268 10.6376 248.147 12.7289C248.152 11.1032 248.154 10.1747 248.154 10.1747H244.998V31.5962H248.154C248.154 31.5962 248.155 21.4353 248.155 18.9884C248.155 14.9557 250.923 12.6014 254.197 12.6014C257.471 12.6014 260.273 14.69 260.273 18.1913V31.5962H263.412V17.022C263.412 12.4712 258.766 9.73202 255.472 9.69588Z" fill="#98CC84"/>
<path d="M280.051 9.69588C276.757 9.65974 273.847 10.6376 272.726 12.7289C272.731 11.1032 272.733 10.1747 272.733 10.1747H269.577V31.5962H272.733C272.733 31.5962 272.734 21.4353 272.734 18.9884C272.734 14.9557 275.501 12.6014 278.776 12.6014C282.05 12.6014 284.851 14.69 284.851 18.1913V31.5962H287.991V17.022C287.991 12.4712 283.345 9.73202 280.051 9.69588Z" fill="#98CC84"/>
<path d="M229.093 12.7802C224.671 12.7802 221.073 16.3787 221.073 20.8015C221.073 25.2238 224.671 28.8218 229.093 28.8218C233.516 28.8218 237.115 25.2238 237.115 20.8015C237.115 16.3787 233.516 12.7802 229.093 12.7802ZM229.093 31.9616C222.94 31.9616 217.933 26.9553 217.933 20.8015C217.933 14.6478 222.94 9.64038 229.093 9.64038C235.247 9.64038 240.254 14.6478 240.254 20.8015C240.254 26.9553 235.247 31.9616 229.093 31.9616Z" fill="#98CC84"/>
<path d="M179.379 0H182.568V9.23249H179.379V0Z" fill="#98CC84"/>
<path d="M201.966 31.9704C193.153 31.9704 185.982 24.7994 185.982 15.9852C185.982 7.17097 193.153 0 201.966 0C206.709 0 211.176 2.08651 214.224 5.72434L211.818 7.74016C209.369 4.81661 205.778 3.13933 201.966 3.13933C194.884 3.13933 189.121 8.90246 189.121 15.9852C189.121 23.068 194.884 28.8306 201.966 28.8306C205.783 28.8306 209.378 27.1496 211.829 24.2175L214.237 26.2312C211.189 29.8781 206.715 31.9704 201.966 31.9704Z" fill="#98CC84"/>
<path d="M159.389 3.13933C152.305 3.13933 146.543 8.90246 146.543 15.9852C146.543 23.068 152.305 28.8306 159.389 28.8306C166.472 28.8306 172.234 23.068 172.234 15.9852C172.234 8.90246 166.472 3.13933 159.389 3.13933ZM159.389 31.9704C150.574 31.9704 143.404 24.7994 143.404 15.9852C143.404 7.17097 150.574 0 159.389 0C168.203 0 175.373 7.17097 175.373 15.9852C175.373 24.7994 168.203 31.9704 159.389 31.9704Z" fill="#98CC84"/>
<path d="M127.989 10.0937H123.314L114.099 18.445V0.437073H110.959V31.5992H114.099V21.3128L123.044 31.5992H127.536L116.792 20.0325L127.989 10.0937Z" fill="#98CC84"/>
<path d="M97.4585 31.9889C91.3048 31.9889 86.2979 26.9826 86.2979 20.8288C86.2979 14.6751 91.3048 9.66766 97.4585 9.66766C101.034 9.66766 104.418 11.4007 106.513 14.303L103.967 16.1398C102.461 14.0533 100.028 12.8075 97.4585 12.8075C93.0357 12.8075 89.4377 16.406 89.4377 20.8288C89.4377 25.2511 93.0357 28.8491 97.4585 28.8491C100.028 28.8491 102.462 27.6033 103.968 25.5163L106.514 27.353C104.419 30.2553 101.034 31.9889 97.4585 31.9889Z" fill="#98CC84"/>
<path d="M78.2145 10.0773H81.3544V31.5828H78.2145V10.0773Z" fill="#98CC84"/>
<path d="M77.2581 2.60637C77.2581 4.00039 78.3879 5.13081 79.7825 5.13081C81.177 5.13081 82.3069 4.00039 82.3069 2.60637C82.3069 1.21235 81.177 0.0819397 79.7825 0.0819397C78.3879 0.0819397 77.2581 1.21235 77.2581 2.60637Z" fill="#98CC84"/>
<path d="M66.6279 12.7182L66.6258 10.1858L63.4386 10.1847V31.6067H66.6274C66.6274 31.6067 66.6274 27.5081 66.6168 18.983C66.6168 14.8201 69.8167 11.8455 73.37 13.2889V10.3059C70.6468 8.95384 68.7208 10.1847 66.6279 12.7182Z" fill="#98CC84"/>
<path d="M50.7974 3.27722H53.9373V31.5928H50.7974V3.27722Z" fill="#98CC84"/>
<path d="M48.1095 10.1593H58.7169V13.2678H48.1095V10.1593Z" fill="#98CC84"/>
<path fill-rule="evenodd" clip-rule="evenodd" d="M39.3438 28.4793C37.5017 30.6336 34.8916 31.978 31.9993 31.978C26.4261 31.978 21.9016 26.9857 21.9016 20.8365C21.9016 14.6873 26.4261 9.69501 31.9993 9.69501C34.8916 9.69501 37.5017 11.0394 39.3438 13.1937V10.1886H42.4837V31.5941H39.3438V28.4793ZM32.4089 12.9552C32.377 12.9552 32.3451 12.9552 32.3131 12.9552C32.2835 12.9565 32.254 12.9565 32.2246 12.9577C32.0158 12.9628 31.8091 12.9781 31.6045 13.0011C31.5674 13.0062 31.5304 13.01 31.4938 13.0151L31.4651 13.019L31.4316 13.0241C27.8006 13.5368 24.995 16.8697 24.995 20.9003C24.995 25.2854 28.3171 28.8454 32.4089 28.8454C32.4234 28.8454 32.4379 28.8454 32.4522 28.8454H32.4567H32.4655H32.483H32.4966H32.5045H32.5108H32.52L32.545 28.8441H32.5524H32.5544C32.5687 28.8441 32.5828 28.8441 32.5974 28.8428H32.6001H32.6082H32.6308L32.641 28.8415H32.6476H32.6553H32.6677L32.6865 28.8403H32.6952H32.699C32.7133 28.839 32.7276 28.839 32.742 28.8377L32.7779 28.8364L32.7851 28.8352H32.7901H32.7987L32.8146 28.8339L32.8291 28.8326H32.8374H32.8429L32.8512 28.8313L32.8786 28.8301H32.8846L32.886 28.8288C32.9002 28.8288 32.9143 28.8275 32.9286 28.8262H32.9318L32.9402 28.825L32.9606 28.8237H32.9719L32.9789 28.8224H32.9859L32.9971 28.8211L33.0175 28.8199L33.026 28.8186H33.0291C33.043 28.8173 33.0568 28.816 33.071 28.8148C33.0921 28.8122 33.1133 28.8097 33.1349 28.8084L33.1423 28.8071L33.1501 28.8058C33.1714 28.8045 33.1927 28.802 33.214 28.7995L33.2596 28.7943L33.2784 28.7918L33.2867 28.7905L33.2933 28.7892C33.3143 28.7867 33.3353 28.7841 33.3562 28.7816H33.3585L33.3651 28.7803L33.3989 28.7752L33.4216 28.7714L33.4302 28.7701H33.4355C33.4562 28.7663 33.4767 28.7637 33.4976 28.7599H33.5016L33.5099 28.7586L33.5373 28.7535L33.5646 28.7497L33.5729 28.7484L33.5768 28.7472C33.5972 28.7446 33.6178 28.7408 33.6384 28.7369L33.6438 28.7357L33.6525 28.7344L33.6748 28.7306L33.7078 28.7242L33.7146 28.7229L33.717 28.7216C33.7374 28.7178 33.7578 28.714 33.7785 28.7102L33.7851 28.7089L33.7934 28.7063L33.8115 28.7038L33.8525 28.6949L33.8562 28.6936C33.8766 28.6898 33.897 28.6859 33.9178 28.6808L33.9256 28.6796L33.933 28.677C33.9535 28.6732 33.974 28.6681 33.9941 28.663H33.9953L34.0002 28.6617L34.0374 28.6528L34.0564 28.6489L34.065 28.6464L34.0714 28.6451C34.0914 28.64 34.1114 28.6349 34.1313 28.6298L34.1342 28.6285L34.1421 28.6273L34.1717 28.6196L34.1946 28.6132L34.2034 28.6107L34.2085 28.6094C34.2281 28.6043 34.2478 28.5992 34.2677 28.5941L34.2722 28.5928L34.281 28.5903L34.3052 28.5826L34.3323 28.575L34.3407 28.5724L34.3444 28.5711C34.3639 28.566 34.3836 28.5597 34.403 28.5546L34.4091 28.5533L34.418 28.5494L34.4375 28.5444L34.4703 28.5341L34.4772 28.5316H34.4793C34.4988 28.5252 34.5182 28.5188 34.5375 28.5125L34.5449 28.5099L34.5534 28.5074L34.5689 28.5023L34.6099 28.4895L34.6124 28.4882L34.6152 28.4869L34.6559 28.4742L34.6712 28.4678L34.6798 28.4653L34.6872 28.4627C34.7063 28.4563 34.7253 28.45 34.7443 28.4423H34.7467L34.7541 28.4398L34.7856 28.4283L34.804 28.4206L34.8133 28.4181L34.8197 28.4155C34.8383 28.4092 34.8569 28.4015 34.8757 28.3951L34.8798 28.3926L34.8891 28.3887L34.9142 28.3798L34.9361 28.3709L34.9458 28.3671L34.9509 28.3658C34.9694 28.3581 34.9879 28.3505 35.006 28.3441L35.0117 28.3415L35.0216 28.3377L35.0417 28.3288L35.0678 28.3186L35.0772 28.3148L35.0809 28.3135C35.0993 28.3058 35.1175 28.2982 35.1354 28.2905L35.1425 28.2867L35.1521 28.2829L35.1682 28.2765L35.1995 28.2625L35.2074 28.2586H35.2096C35.2277 28.2497 35.2458 28.2421 35.2636 28.2344L35.272 28.2306L35.2809 28.2267L35.2935 28.2204L35.3326 28.2025L35.3364 28.2012L35.3438 28.1974L35.3763 28.1821L35.3906 28.1757L35.4003 28.1719L35.4082 28.1681C35.4257 28.1591 35.443 28.1515 35.4604 28.1426L35.4641 28.1413L35.4743 28.1362L35.4997 28.1234L35.5167 28.1145L35.5275 28.1094L35.5341 28.1069C35.5511 28.0979 35.568 28.089 35.5851 28.0801L35.5905 28.0775L35.6016 28.0724L35.6219 28.0622L35.6419 28.0507L35.6532 28.0456L35.6586 28.0431C35.6753 28.0341 35.692 28.0252 35.7086 28.0163L35.7156 28.0125L35.7267 28.0061L35.7428 27.9972L35.7664 27.9844L35.7776 27.9793L35.7817 27.9767C35.7983 27.9678 35.8147 27.9589 35.8309 27.9487L35.8393 27.9449L35.8499 27.9385L35.8624 27.9308L35.8905 27.9155L35.9008 27.9091L35.9087 27.9053L35.9415 27.8862L35.9518 27.8798L35.9618 27.8747L35.9715 27.8683L35.9808 27.8632L36.0157 27.8416L36.0225 27.8377L36.0343 27.8313L36.059 27.816L36.0716 27.8084L36.0829 27.802L36.0914 27.7969C36.1069 27.7867 36.1225 27.7765 36.1378 27.7676L36.1429 27.765L36.1559 27.7561L36.1753 27.7433L36.19 27.7344L36.2026 27.7268L36.2097 27.7216C36.2249 27.7127 36.24 27.7025 36.255 27.6923L36.2619 27.6885L36.2748 27.6796L36.2901 27.6693L36.3073 27.6579L36.3208 27.649L36.3266 27.6451C36.3412 27.6362 36.3559 27.626 36.3708 27.6158L36.3794 27.6094L36.3917 27.6018L36.4036 27.5928L36.4235 27.5801L36.4375 27.5699L36.4466 27.5635L36.4785 27.5405L36.4852 27.5367L36.4953 27.529L36.5068 27.5214L36.5157 27.515L36.5389 27.4984L36.5528 27.4882L36.5667 27.478L36.5897 27.4614L36.5982 27.4551L36.6098 27.4461L36.6202 27.4385L36.6264 27.4334L36.6549 27.413L36.6665 27.4041L36.6818 27.3926L36.6994 27.3785L36.7097 27.3709L36.7229 27.3607L36.7318 27.3543C36.7453 27.3441 36.7587 27.3326 36.7722 27.3224L36.7787 27.3173L36.7939 27.3058L36.8077 27.2944L36.8197 27.2854L36.8342 27.2739L36.8419 27.2676C36.8551 27.2574 36.8683 27.2459 36.8811 27.2357L36.8894 27.2293L36.9037 27.2178L36.9146 27.2089L36.9282 27.1974L36.9442 27.1847L36.9553 27.1745L36.9848 27.1502L36.9885 27.1477L36.9984 27.1388L37.0118 27.1273L37.0198 27.1209L37.0354 27.1069L37.0523 27.0928L37.0693 27.0775L37.0892 27.0609L37.0943 27.0558L37.1059 27.0456L37.1179 27.0354L37.1236 27.0303L37.1411 27.015L37.159 26.9984L37.1767 26.9831L37.1919 26.9691L37.1985 26.9627L37.2116 26.9512L37.2222 26.941L37.2258 26.9385L37.2461 26.9194L37.2639 26.9028L37.2811 26.8875L37.293 26.876L37.301 26.8683L37.3157 26.8543L37.3249 26.8454L37.3264 26.8441L37.3549 26.8173L37.3671 26.8058L37.3833 26.7893L37.3926 26.7803L37.4018 26.7714L37.4181 26.7561L37.4331 26.7408L37.4582 26.7166L37.4593 26.7153L37.4686 26.7051L37.4834 26.691L37.4906 26.6834L37.501 26.6732L37.5188 26.6553L37.5396 26.6336L37.555 26.6171L37.5575 26.6145L37.5684 26.6043L37.5818 26.5903L37.5869 26.5839L37.5984 26.5724L37.6176 26.552L37.6379 26.5303L37.6501 26.5176L37.654 26.5138L37.6663 26.4997L37.6782 26.487L37.6815 26.4831L37.6938 26.4704L37.7147 26.4474L37.7337 26.427L37.7436 26.4155L37.7487 26.4092L37.7625 26.3938L37.7729 26.3824L37.7745 26.3811L37.7866 26.3671L37.81 26.3403L37.8273 26.3212L37.8355 26.311L37.8416 26.3046L37.8569 26.2867L37.9035 26.2319L37.9192 26.214L37.9255 26.2064L37.9327 26.1974L37.9495 26.177L37.9757 26.1451L37.9846 26.1349L37.9853 26.1337L37.995 26.1222L38.0091 26.1043L38.0139 26.0992L38.022 26.089L38.0401 26.0661L38.0623 26.038L38.0717 26.0265L38.0737 26.024L38.0847 26.0099L38.0971 25.9946L38.1004 25.9895L38.1091 25.978L38.1288 25.9538L38.1484 25.927L38.157 25.9168L38.1602 25.9117L38.1725 25.8964L38.1832 25.8824L38.1851 25.8786L38.194 25.8671L38.2156 25.8377L38.2331 25.8148L38.2406 25.8046L38.2449 25.7982L38.2582 25.7803L38.2674 25.7676L38.268 25.7663L38.2754 25.7561L38.3004 25.7217L38.3158 25.7L38.3222 25.6911L38.3277 25.6834C38.3509 25.6502 38.374 25.6171 38.3968 25.5839L38.4019 25.5763L38.4086 25.566L38.4239 25.5431L38.4453 25.5112L38.4541 25.4985L38.4552 25.4972L38.464 25.4832L38.4758 25.4653L38.4799 25.4589L38.4875 25.4474L38.5037 25.4232L38.5216 25.3951L38.5306 25.3811L38.533 25.3773L38.5427 25.362L38.5528 25.3454L38.5557 25.3416L38.5647 25.3275L38.5814 25.3008L38.597 25.2752L38.6054 25.2612L38.6089 25.2561L38.6195 25.2383L38.6279 25.2242L38.6297 25.2217L38.6403 25.2038L38.657 25.177L38.6705 25.1541L38.6781 25.1413L38.6831 25.1324L38.6941 25.1145L38.701 25.1018L38.7018 25.1005L38.7174 25.0737L38.7306 25.0508L38.7422 25.0303L38.7487 25.0189L38.7551 25.0074L38.7666 24.987L38.7746 24.973L38.7948 24.9372L38.7957 24.9347L38.8019 24.9232L38.8119 24.9053L38.8174 24.8951L38.8254 24.8798L38.8369 24.8594L38.8478 24.839L38.862 24.8122L38.8644 24.8071L38.8712 24.7944L38.8795 24.7791L38.8841 24.7701L38.8941 24.751L38.905 24.7306L38.9153 24.7102L38.9273 24.686L38.9311 24.6783L38.9383 24.6643L38.945 24.6515L38.9486 24.6439L38.962 24.6171L38.9709 24.5992L38.98 24.5801L38.9904 24.5584L38.9958 24.5482L39.0031 24.5329L39.0084 24.5214C39.0161 24.5061 39.0239 24.4895 39.0315 24.473L39.0346 24.4666L39.0424 24.45L39.0515 24.4296L39.0586 24.4156L39.0656 24.4002L39.0695 24.3913C39.0773 24.3747 39.085 24.3569 39.0926 24.3403L39.0961 24.3327L39.1026 24.3186L39.1106 24.2995L39.1195 24.2804L39.1259 24.265L39.1286 24.2587C39.1364 24.2408 39.144 24.2242 39.1515 24.2064L39.1552 24.1974L39.1603 24.1847L39.1674 24.1694L39.179 24.1413L39.1839 24.1298L39.1855 24.126C39.1931 24.1069 39.2008 24.089 39.2084 24.0699L39.212 24.061L39.216 24.0508L39.2219 24.0367L39.2375 23.9972L39.2395 23.9921L39.2411 23.9883L39.2572 23.9474L39.2631 23.9321L39.2665 23.9232L39.2694 23.9156C39.2771 23.8952 39.2847 23.8747 39.2922 23.8556L39.2929 23.8531L39.2947 23.848L39.308 23.8122L39.316 23.7906L39.3186 23.7842L39.3204 23.7791C39.3281 23.7574 39.3356 23.737 39.3431 23.7153L39.3438 23.714C39.6533 22.839 39.8227 21.8901 39.8227 20.9003C39.8227 19.9105 39.6533 18.9615 39.3438 18.0865L39.3431 18.0853C39.3356 18.0648 39.3281 18.0432 39.3204 18.0215L39.3186 18.0164L39.316 18.01L39.308 17.9883L39.2947 17.9526L39.2929 17.9475L39.2922 17.9462C39.2847 17.9258 39.2771 17.9054 39.2694 17.885L39.2665 17.8773L39.2631 17.8697L39.2572 17.8531L39.2411 17.8123L39.2395 17.8085L39.2375 17.8034L39.2219 17.7638L39.216 17.7498L39.212 17.7396L39.2084 17.7307C39.2008 17.7128 39.193 17.6937 39.1855 17.6745L39.1839 17.6707L39.179 17.6592L39.1674 17.6324L39.1603 17.6159L39.1552 17.6031L39.1515 17.5942C39.1439 17.5763 39.1362 17.5597 39.1286 17.5419L39.1259 17.5355L39.1195 17.5215L39.1106 17.5011L39.1026 17.4819L39.0961 17.4679L39.0926 17.4603C39.085 17.4437 39.0772 17.4258 39.0695 17.4092L39.0656 17.4003L39.0586 17.385L39.0515 17.371L39.0424 17.3506L39.0346 17.334L39.0315 17.3276C39.0239 17.311 39.0161 17.2944 39.0084 17.2791L39.0031 17.2677L38.9958 17.2523L38.9904 17.2421L38.98 17.2205L38.9709 17.2013L38.962 17.1835L38.9486 17.1567L38.945 17.149L38.9383 17.1363L38.9311 17.1222L38.9273 17.1146L38.9153 17.0904L38.905 17.0712L38.8941 17.0495L38.8841 17.0304L38.8795 17.0215L38.8712 17.0062L38.8644 16.9934L38.862 16.9883L38.8478 16.9615L38.8369 16.9411L38.8254 16.9207L38.8174 16.9054L38.8119 16.8952L38.8019 16.8773L38.7957 16.8659L38.7948 16.8646L38.7746 16.8276L38.7666 16.8136L38.7551 16.7932L38.7487 16.7817L38.7422 16.7702L38.7306 16.7498L38.7174 16.7268L38.7018 16.7L38.701 16.6988L38.6941 16.6873L38.6831 16.6682L38.6781 16.6592L38.6705 16.6465L38.657 16.6248L38.6403 16.5967L38.6297 16.5789L38.6279 16.5763L38.6195 16.5623L38.6089 16.5444L38.6054 16.5393L38.597 16.5253L38.5814 16.4998L38.5647 16.473L38.5557 16.459L38.5528 16.4552L38.5427 16.4386L38.533 16.4233L38.5306 16.4194L38.5216 16.4054L38.5037 16.3774L38.4875 16.3531L38.4799 16.3416L38.4758 16.3353L38.464 16.3174L38.4552 16.3034L38.4541 16.3021L38.4453 16.2893L38.4239 16.2575L38.4086 16.2345L38.4019 16.2243L38.3968 16.2166C38.374 16.1835 38.3509 16.1503 38.3277 16.1171L38.3222 16.1095L38.3158 16.1006L38.3004 16.0789L38.2754 16.0445L38.268 16.0342L38.2674 16.033L38.2582 16.0202L38.2449 16.0024L38.2406 15.996L38.2331 15.9858L38.2156 15.9628L38.194 15.9335L38.1851 15.922L38.1832 15.9194L38.1725 15.9041L38.1602 15.8888L38.157 15.885L38.1484 15.8735L38.1288 15.848L38.1091 15.8225L38.1004 15.811L38.0971 15.8072L38.0847 15.7906L38.0737 15.7766L38.0717 15.774L38.0623 15.7626L38.0401 15.7345L38.022 15.7115L38.0139 15.7026L38.0091 15.6962L37.995 15.6784L37.9853 15.6669L37.9846 15.6656L37.9757 15.6554L37.9495 15.6235L37.9327 15.6031L37.9255 15.5942L37.9192 15.5865L37.9035 15.5687L37.8569 15.5138L37.8416 15.496L37.8355 15.4896L37.8273 15.4794L37.81 15.4603L37.7866 15.4335L37.7745 15.4195L37.7729 15.4182L37.7625 15.4067L37.7487 15.3914L37.7436 15.385L37.7337 15.3735L37.7147 15.3531L37.6938 15.3302L37.6815 15.3174L37.6782 15.3136L37.6663 15.3008L37.654 15.2881L37.6501 15.283L37.6379 15.2702L37.6176 15.2485L37.5984 15.2281L37.5869 15.2166L37.5818 15.2103L37.5684 15.1975L37.5575 15.186L37.555 15.1835L37.5396 15.1669L37.5188 15.1452L37.501 15.1274L37.4906 15.1172L37.4834 15.1095L37.4686 15.0955L37.4593 15.0853L37.4582 15.084L37.4331 15.0598L37.4181 15.0444L37.4018 15.0291L37.3926 15.0202L37.3833 15.0113L37.3671 14.9947L37.3549 14.9832L37.3264 14.9564L37.3249 14.9552L37.3157 14.9462L37.301 14.9322L37.293 14.9246L37.2811 14.9131L37.2639 14.8978L37.2461 14.8812L37.2258 14.8621L37.2222 14.8595L37.2116 14.8493L37.1985 14.8378L37.1919 14.8314L37.1767 14.8174L37.159 14.8021L37.1411 14.7855L37.1236 14.7702L37.1179 14.7651L37.1059 14.7549L37.0943 14.7447L37.0892 14.7396L37.0693 14.723L37.0523 14.7077L37.0354 14.6937L37.0198 14.6797L37.0118 14.6733L36.9984 14.6618L36.9885 14.6542L36.9848 14.6503L36.9553 14.6261L36.9442 14.6159L36.9282 14.6031L36.9146 14.5917L36.9037 14.5827L36.8894 14.5712L36.8811 14.5649C36.8681 14.5547 36.855 14.5432 36.8419 14.533L36.8342 14.5266L36.8197 14.5151L36.8077 14.5062L36.7939 14.4947L36.7787 14.4832L36.7722 14.4781C36.7587 14.4679 36.7453 14.4564 36.7318 14.4462L36.7229 14.4399L36.7097 14.4297L36.6994 14.422L36.6818 14.408L36.6665 14.3965L36.6549 14.3876L36.6264 14.3672L36.6202 14.3621L36.6098 14.3544L36.5982 14.3455L36.5897 14.3391L36.5667 14.3225L36.5528 14.3123L36.5389 14.3034L36.5157 14.2855L36.5068 14.2791L36.4953 14.2715L36.4852 14.2638L36.4785 14.26L36.4466 14.2371L36.4375 14.2307L36.4235 14.2218L36.4036 14.2077L36.3917 14.1988L36.3794 14.1911L36.3708 14.1848C36.3562 14.1746 36.3415 14.1656 36.3266 14.1554L36.3208 14.1516L36.3073 14.1427L36.2901 14.1312L36.2748 14.121L36.2619 14.1121L36.255 14.1082C36.24 14.098 36.2249 14.0891 36.2097 14.0789L36.2026 14.0738L36.19 14.0661L36.1753 14.0572L36.1559 14.0445L36.1429 14.0368L36.1378 14.033C36.1224 14.0241 36.1069 14.0139 36.0914 14.0037L36.0829 13.9985L36.0716 13.9922L36.059 13.9845L36.0343 13.9692L36.0225 13.9628L36.0157 13.959L35.9808 13.9373L35.9715 13.9322L35.9618 13.9271L35.9518 13.9207L35.9415 13.9144L35.9087 13.8952L35.9008 13.8914L35.8905 13.885L35.8624 13.8697L35.8499 13.8621L35.8393 13.8557L35.8309 13.8519C35.8144 13.8417 35.798 13.8327 35.7817 13.8238L35.7776 13.8225L35.7664 13.8161L35.7428 13.8034L35.7267 13.7945L35.7156 13.7881L35.7086 13.7843C35.692 13.7753 35.6754 13.7664 35.6586 13.7587L35.6532 13.7549L35.6419 13.7498L35.6219 13.7396L35.6016 13.7281L35.5905 13.723L35.5851 13.7205C35.5681 13.7115 35.5512 13.7026 35.5341 13.695L35.5275 13.6911L35.5167 13.686L35.4997 13.6771L35.4743 13.6656L35.4641 13.6605L35.4604 13.658C35.443 13.6491 35.4256 13.6414 35.4082 13.6338L35.4003 13.6299L35.3906 13.6248L35.3763 13.6184L35.3438 13.6031L35.3364 13.5993L35.3326 13.598L35.2935 13.5802L35.2809 13.5738L35.272 13.57L35.2636 13.5661C35.2456 13.5585 35.2276 13.5508 35.2096 13.5419H35.2074L35.1995 13.5381L35.1682 13.5241L35.1521 13.5177L35.1425 13.5138L35.1354 13.51C35.1173 13.5024 35.0991 13.4947 35.0809 13.4871L35.0772 13.4858L35.0678 13.482L35.0417 13.4718L35.0216 13.4628L35.0117 13.459L35.006 13.4565C34.9877 13.4501 34.9693 13.4424 34.9509 13.4348L34.9458 13.4335L34.9361 13.4297L34.9142 13.4207L34.8891 13.4118L34.8798 13.408L34.8757 13.4067C34.8572 13.3991 34.8384 13.3927 34.8197 13.385L34.8133 13.3825L34.804 13.3799L34.7856 13.3723L34.7541 13.3608L34.7467 13.3582H34.7443C34.7253 13.3519 34.7063 13.3442 34.6872 13.3378L34.6798 13.3353L34.6712 13.3327L34.6559 13.3276L34.6152 13.3136L34.6124 13.3123L34.6099 13.311L34.5689 13.2983L34.5534 13.2932L34.5449 13.2906L34.5375 13.2881C34.5182 13.2817 34.4988 13.2753 34.4793 13.269H34.4772L34.4703 13.2664L34.4375 13.2562L34.418 13.2511L34.4091 13.2485L34.403 13.246C34.3836 13.2409 34.3641 13.2345 34.3444 13.2294L34.3407 13.2281L34.3323 13.2256L34.3052 13.2179L34.281 13.2116L34.2722 13.209L34.2677 13.2077C34.2479 13.2013 34.2282 13.1963 34.2085 13.1912L34.2034 13.1899L34.1946 13.1873L34.1717 13.1809L34.1421 13.1733L34.1342 13.172L34.1313 13.1707C34.1113 13.1656 34.0912 13.1605 34.0714 13.1554L34.065 13.1542L34.0564 13.1529L34.0374 13.1478L34.0002 13.1389L33.9953 13.1376H33.9941C33.9736 13.1325 33.9534 13.1287 33.933 13.1236L33.9256 13.1223L33.9178 13.1197C33.8972 13.1159 33.8767 13.1108 33.8562 13.107L33.8115 13.0968L33.7934 13.0942L33.7851 13.0917L33.7785 13.0904C33.758 13.0866 33.7374 13.0827 33.717 13.0789L33.7146 13.0776L33.7078 13.0764L33.6748 13.0713L33.6525 13.0661L33.6438 13.0649L33.6384 13.0636C33.6179 13.0598 33.5974 13.0572 33.5768 13.0534L33.5729 13.0521L33.5646 13.0508L33.5373 13.047L33.5099 13.0419L33.5016 13.0406H33.4976C33.477 13.0368 33.4563 13.0343 33.4355 13.0304H33.4302L33.4216 13.0292L33.3989 13.0253L33.3651 13.0202H33.3585L33.3562 13.019C33.3353 13.0164 33.3143 13.0139 33.2933 13.0113L33.2867 13.01L33.2784 13.0088L33.2596 13.0075L33.217 13.0024L33.214 13.0011C33.1927 12.9985 33.1714 12.9973 33.1501 12.9947L33.1423 12.9934H33.1349C33.1136 12.9909 33.0923 12.9883 33.071 12.9858C33.0571 12.9845 33.043 12.9832 33.0291 12.982H33.026H33.0175L32.9971 12.9794L32.9859 12.9781H32.9789H32.9719L32.9606 12.9769L32.9402 12.9756L32.9318 12.9743H32.9286C32.9145 12.973 32.9002 12.9718 32.886 12.9718H32.8846L32.8786 12.9705L32.8512 12.9692L32.8429 12.9679H32.8374H32.8291L32.8146 12.9667L32.7987 12.9654H32.7901H32.7851H32.7779L32.7466 12.9628H32.742C32.7277 12.9628 32.7134 12.9616 32.699 12.9616L32.6952 12.9603H32.6865H32.6677L32.6553 12.959H32.6476H32.641H32.6308L32.6082 12.9577H32.6001H32.5974C32.5831 12.9577 32.5687 12.9565 32.5544 12.9565H32.5524H32.545H32.52L32.5108 12.9552H32.5045H32.4966H32.483H32.4655H32.4567H32.4522H32.446H32.4089Z" fill="#98CC84"/>
<path fill-rule="evenodd" clip-rule="evenodd" d="M39.3438 29.251V28.4793C37.5017 30.6336 34.8916 31.978 31.9993 31.978C26.4261 31.978 21.9016 26.9857 21.9016 20.8365C21.9016 14.6873 26.4261 9.69501 31.9993 9.69501C34.8916 9.69501 37.5017 11.0394 39.3438 13.1937V10.1886H42.4837V31.5941H39.3438V29.251L39.3468 29.2471L39.3438 29.251ZM32.4089 12.9552C32.377 12.9552 32.3451 12.9552 32.3131 12.9552C32.2835 12.9565 32.254 12.9565 32.2246 12.9577C32.0158 12.9628 31.8091 12.9781 31.6045 13.0011L31.4651 13.019L31.4316 13.0241C27.8006 13.5368 24.995 16.8697 24.995 20.9003C24.995 25.2854 28.3171 28.8454 32.4089 28.8454L32.5544 28.8441L32.699 28.8403L32.8512 28.8313L32.9971 28.8211L33.071 28.8148L33.1501 28.8058L33.2933 28.7892L33.4355 28.7701L33.5768 28.7472L33.6748 28.7306L33.8115 28.7038L33.933 28.677L34.0714 28.6451L34.2085 28.6094L34.3444 28.5711L34.4375 28.5444L34.5689 28.5023L34.6872 28.4627L34.8197 28.4155L34.9509 28.3658L35.0809 28.3135L35.2096 28.2586L35.2935 28.2204L35.4082 28.1681L35.5341 28.1069L35.6586 28.0431L35.7817 27.9767L35.9087 27.9053L36.0343 27.8313L36.1753 27.7433L36.2901 27.6693L36.4036 27.5928L36.5157 27.515L36.6264 27.4334L36.7318 27.3543L36.8419 27.2676L36.9553 27.1745L37.0523 27.0928L37.159 26.9984L37.2639 26.9028L37.3671 26.8058L37.4686 26.7051L37.5684 26.6043L37.6663 26.4997L37.7745 26.3811L37.8662 26.2765L37.9495 26.177L38.0401 26.0661L38.1288 25.9538L38.2156 25.8377L38.3004 25.7217L38.3277 25.6834L38.4239 25.5431L38.5037 25.4232L38.5814 25.3008L38.657 25.177L38.7306 25.0508L38.8019 24.9232L38.8712 24.7944L38.9486 24.6439L39.0084 24.5214L39.0695 24.3913L39.1286 24.2587L39.1855 24.126L39.2219 24.0367L39.2694 23.9156L39.3204 23.7791L39.3438 23.714C39.6533 22.839 39.8227 21.8901 39.8227 20.9003C39.8227 19.9105 39.6533 18.9615 39.3438 18.0865L39.308 17.9883L39.2572 17.8531L39.2084 17.7307L39.1515 17.5942L39.0926 17.4603L39.0315 17.3276L38.9709 17.2013L38.905 17.0712L38.8369 16.9411L38.7666 16.8136L38.6941 16.6873L38.6195 16.5623L38.5427 16.4386L38.4541 16.3021L38.3968 16.2166L38.3004 16.0789L38.2156 15.9628L38.1288 15.848L38.0401 15.7345L37.9495 15.6235L37.9035 15.5687L37.81 15.4603L37.7147 15.3531L37.6176 15.2485L37.5188 15.1452L37.4181 15.0444L37.3157 14.9462L37.2116 14.8493L37.0892 14.7396L36.9848 14.6503L36.8811 14.5649L36.7722 14.4781L36.6549 14.3876L36.5389 14.3034L36.4235 14.2218L36.2901 14.1312L36.1753 14.0572L36.059 13.9845L35.9415 13.9144L35.8309 13.8519L35.7086 13.7843L35.5851 13.7205L35.4604 13.658L35.3763 13.6184L35.2636 13.5661L35.1354 13.51L35.006 13.4565L34.8757 13.4067L34.7856 13.3723L34.6559 13.3276L34.5375 13.2881L34.403 13.246L34.2677 13.2077L34.1313 13.1707L34.0374 13.1478L33.9178 13.1197L33.7785 13.0904L33.6384 13.0636L33.4976 13.0406L33.3989 13.0253L33.2596 13.0075L33.1349 12.9934L32.9606 12.9769L32.7779 12.9654L32.6308 12.959L32.483 12.9552H32.4089ZM42.226 24.9615L42.2246 24.9653C42.2246 24.9653 42.224 24.9666 42.2275 24.9576L42.226 24.9615ZM42.2615 24.8658L42.2603 24.8696C42.2607 24.8684 42.2611 24.8671 42.2615 24.8658ZM42.2957 24.7714L42.2951 24.7727C42.2951 24.7727 42.2944 24.7752 42.2986 24.7625L42.2957 24.7714ZM42.2682 16.9526L42.27 16.9577C42.27 16.9577 42.2718 16.9628 42.2671 16.9501L42.2682 16.9526ZM42.1608 16.6694H42.1611C42.161 16.6694 42.161 16.6694 42.1608 16.6694ZM42.0834 16.4781L42.0844 16.4807C42.0844 16.4807 42.086 16.4832 42.0825 16.4756L42.0834 16.4781ZM41.6346 15.524L41.6376 15.5291C41.6376 15.5291 41.6399 15.5342 41.6326 15.5202L41.6346 15.524ZM32.4089 12.9552H32.417V12.8455L32.4089 12.8442V12.9552ZM34.4179 10.0203L34.4205 10.0215C34.4205 10.0215 34.4287 10.0228 34.4145 10.0203H34.4179ZM34.3133 9.99985L34.3182 10.0011C34.3182 10.0011 34.3205 10.0011 34.3085 9.99985H34.3133ZM34.2117 9.98072L34.2154 9.98199C34.2141 9.98199 34.2129 9.98199 34.2117 9.98072ZM34.1064 9.96286L34.1123 9.96414C34.1123 9.96414 34.1162 9.96413 34.1022 9.96158L34.1064 9.96286ZM34.0068 9.94628H34.0089C34.0082 9.94628 34.0075 9.94628 34.0068 9.94628ZM33.8988 9.9297L33.9051 9.93097C33.9051 9.93097 33.9106 9.93097 33.8955 9.9297H33.8988ZM33.7994 9.91567H33.8012C33.8006 9.91567 33.7999 9.91567 33.7994 9.91567ZM33.6898 9.90036L33.6969 9.90164C33.6969 9.90164 33.7036 9.90291 33.6875 9.90036H33.6898ZM33.4814 9.87612L33.4874 9.8774C33.4874 9.8774 33.4952 9.87739 33.4772 9.87612H33.4814ZM33.3092 9.85954H33.3128C33.3128 9.85954 33.316 9.85954 33.3061 9.85954H33.3092ZM33.1039 9.84297H33.1081C33.1081 9.84297 33.1094 9.84425 33.0999 9.84297H33.1039ZM33.0325 9.83914H33.0396C33.0396 9.83914 33.0452 9.83914 33.0325 9.83914ZM32.829 9.82765H32.8336C32.8336 9.82765 32.8376 9.82892 32.8267 9.82765H32.829ZM32.6225 9.82128H32.627C32.627 9.82128 32.6289 9.82128 32.6188 9.82128H32.6225ZM32.4629 9.82H32.4707C32.4707 9.82 32.477 9.82 32.4629 9.82Z" fill="#98CC84"/>
<path d="M0.000739098 0.409607H3.14059V31.5717H0.000739098V0.409607Z" fill="#98CC84"/>
<path d="M10.13 20.909H1.55701V17.7691H10.13C12.9122 17.7691 16.2019 15.5232 16.2019 10.529C16.2019 5.35742 13.2204 3.52282 10.13 3.52282C7.343 3.51697 1.55754 3.55949 1.55701 3.55949L1.55435 0.420689C1.55435 0.420689 7.34778 0.377109 10.1332 0.382955C14.869 0.382955 19.9694 3.55789 19.9694 10.529C19.9694 17.6878 14.2153 20.909 10.13 20.909Z" fill="#98CC84"/>
</svg>
